<svg height="100%" width="100%" id="Layer_1" data-name="Layer 1" xmlns="http://www.w3.org/2000/svg" viewBox="0 0 566.78 280.65" preserveAspectRatio="xMidYMid meet">
  <defs>
    <!-- <style>.nsrlogo-1{fill:#000;}.nsrlogo-2{fill:#000;}</style> -->
  </defs>
  <title>NSRlogo </title>
  <path class="nsrlogo-1" d="M155.18,36.6a117.63,117.63,0,0,1,42.7,22.8,121.19,121.19,0,0,1,41.7,70.6c-2.6,12.7-7.5,24.7-13,36.4a105.05,105.05,0,0,1-7.2,13.2c-1.8-4.9-2.7-10.1-4.2-15.2-3.9-14.9-9.3-29.4-14.7-43.8-11.9-29.5-26.2-58.3-45.3-84Z"/>
  <path class="nsrlogo-2" d="M52.88,52.6a129.59,129.59,0,0,1,17.9-9.9c-1,15.8-2.4,31.6-5.5,47.1-3.3,18.3-9.1,36.1-15.8,53.5.5-2.9.9-5.8,1.5-8.7,6.3-26.9,6.3-54.9,1.9-82Z"/>
  <path class="nsrlogo-1" d="M1.58,132.9a120,120,0,0,1,51.3-80.3c4.4,27.1,4.5,55.1-1.9,82-.6,2.9-1,5.8-1.5,8.7-7,18.7-16.3,36.5-26.1,53.8-2.8,4.5-5.2,9.3-8.5,13.5a122,122,0,0,1-13.3-77.7Z"/>
  <path class="nsrlogo-1" d="M186,212.5c-2-4-5.1-7.8-5.7-12.4-5.9-31.3-12.5-62.4-18.5-93.6-5.7-27.4-10.7-55-16.6-82.4C136.38,13.6,125.08,4.5,112,0q-3.15,27.6-6.4,55.1c0,1.3-.7,3.1.7,3.9,2.1,1.5,4.3,2.9,6.5,4.4-20.9,40.3-41.3,80.8-61.9,121.2-7.8,14.8-14.9,29.9-23,44.6,8.8,10.1,18.8,19.2,30.3,26,11.3,5.8,24.3,6.6,36.6,8,11.6.3,23.4,1.2,34.9-1.1-19.1-10.2-38.7-20-59.8-25.3,12.9-39.3,26.2-78.6,39.3-117.8,4.9-14.1,9.1-28.5,14.4-42.5q4.65,68.25,9.6,136.4c.3,2.6.2,5.3,1.3,7.8,5,12.4,9.6,25,14.7,37.4,2.4,5.6,4.1,11.6,6.9,17,15.4,6,32.4,6.8,48.6,4q-17.85-36.3-35.9-72.6a25.54,25.54,0,0,1-1.5-6.2c-5.4-32.6-11.4-65-16.8-97.5-3.9-23.2-8.3-46.3-12-69.5.9.1,2.7.2,3.6.3,11.6,56.7,22.6,113.5,34.1,170.3.8,3,2.6,5.7,4.1,8.5,11.2,20.2,22.1,40.5,33.4,60.7,1.4,1.9,2.9-1.8,4.2-2.5C207.28,251.3,196.38,232,186,212.5ZM62.78,235.1c-8.2-1.8-16.4-3.4-24.6-4.6,3.1-7.6,6.9-14.8,10.4-22.2C71.08,160.8,94,113.5,116.38,66c1.7,1,3.4,2.1,5.1,3.2C101.88,124.4,82.48,179.8,62.78,235.1Z"/>
  <path class="nsrlogo-1" d="M442.48,91.5a43.66,43.66,0,0,1,32.2,4.5c-.9,1.6-1.9,3.1-2.8,4.7-8.1-5.7-18.6-6.6-28.1-4.7-8.4,1.8-15.5,8.6-17.2,17-1.4,7.2-.4,15.4,4.7,21.1,6.1,7.2,15.2,10.5,23.7,14.2,8.4,4,17.1,9.2,21.3,17.9,3.2,6.5,3.1,13.9,2.5,21-1.6,6.3-4.4,12.4-9.3,16.7-8.7,8.1-21.6,9.7-33,8.1a48.18,48.18,0,0,1-19.7-7.4c1-1.6,2-3.1,3-4.7,7.3,4.8,15.9,8.2,24.8,7.8,8.3.2,17-2.8,22.6-9.2,7.2-8.2,8.1-20.8,3.4-30.5-4.1-7.9-12.3-12.5-20.3-15.7-8.6-3.3-17.5-7.2-23.6-14.5-7.2-8.6-8.3-21.4-3.4-31.4,3.5-7.5,11-12.8,19.2-14.9Z"/>
  <path class="nsrlogo-1" d="M315.78,92.2c1.8,0,3.5,0,5.3.1,12.1,18.9,24.4,37.7,36.5,56.6,11,17.1,22.4,34,31.9,52,.3.3.8.9,1.1,1.2-1.4-12-.8-24.1-1.1-36.2-.3-9,.3-18,.1-27-.6-15.6-.4-31.2,0-46.9H395V210.7h-5.7l-34.2-53.4c-11.7-18.8-24.4-36.9-34.6-56.6q1,18.6.9,37.2v72.8h-5.6V92.2Z"/>
  <path class="nsrlogo-1" d="M557,173.6c-2.4-8.7-7.7-17.3-16.6-20.4,4.5-1.9,9.1-4.1,12.7-7.4,13-11.2,13.4-33.7,1.2-45.6-6.1-5.9-14.6-8.2-22.8-8.8a109.45,109.45,0,0,0-29.7,2.3c.1,39,0,78.1,0,117.1h5.5V155.2c9,.3,18.3-.9,27.2.9,9.2,1.9,15,10.5,17.4,19.1,3.1,11.8,4.7,24.1,8.9,35.6,2,0,4,.1,6,.1C561.78,199,560.28,186,557,173.6Zm-28.6-23.3h-21.1V98c10.4-2.1,21.3-2.9,31.6,0,7,2,13.5,6.8,16.2,13.7,3.7,9.2,2.7,20.6-3.7,28.4C545.68,146.8,536.88,149.9,528.38,150.3Z"/>
  <path class="nsrlogo-2" d="M239.58,130c1.9,14.9,2.5,30.1-.4,44.9a120.39,120.39,0,0,1-13.9,37.5c-1.7-11.4-3.1-22.9-6.6-33.8l.7,1.1a99.54,99.54,0,0,0,7.2-13.2c5.5-11.7,10.4-23.8,13-36.5Z"/>
  <path class="nsrlogo-2" d="M58.18,255.4c11.3,5.8,24.3,6.6,36.6,8.1,11.6.3,23.4,1.2,34.9-1.1,5.1,2.8,10.4,5.2,15.3,8.3-29.4,5.8-61.3.9-86.8-15.3Z"/></svg>