<svg id="Layer_1" data-name="Layer 1" xmlns="http://www.w3.org/2000/svg" xmlns:xlink="http://www.w3.org/1999/xlink" viewBox="0 0 283.46 283.46"><defs><style>.nsrwapen-1{fill:none;}.nsrwapen-2{clip-path:url(#clip-path);}</style><clipPath id="clip-path"><rect class="nsrwapen-1" x="9.75" y="7.08" width="263.97" height="269.29"/></clipPath></defs><title>Artboard 2</title><g class="nsrwapen-2"><path class="nsrwapen-3" d="M242.65,31.29s-.06,185.11-.06,197.28c-.75,12.17-38.61,18.91-67.66,23.59-31.58,5.09-33.2,12.44-33.2,12.44s-1.61-7.35-33.2-12.44c-29-4.68-66.9-11.42-67.65-23.59,0-12.17-.06-197.28-.06-197.28S39.6,23.39,72.43,19c30-4,69.3-4.1,69.3-4.1S181,15,211,19c32.83,4.38,31.61,12.28,31.61,12.28M141.73,7.08H9.75s18.66.67,18.66,24.51,0,205,0,205-1.26,9.95,31.71,17.28,81,11.17,81.57,22.48c.62-11.31,48.63-15.15,81.58-22.48S255,236.62,255,236.62s0-181.2,0-205S273.71,7.08,273.71,7.08Z"/><path class="nsrwapen-3" d="M49.9,51.77H70c.93-9.28-3.44-15.07-9.13-18.47-1.46,8.35-6,13.61-11,18.47m21.69,1.82H43.73c7.94-5,14.23-11.63,15.75-23,8.06,3.45,14,11.13,12.11,23"/><path class="nsrwapen-3" d="M49.9,90.58H70c.93-9.28-3.44-15.07-9.13-18.48-1.46,8.36-6,13.62-11,18.48M71.59,92.4H43.73c7.94-5,14.23-11.64,15.75-23,8.06,3.46,14,11.14,12.11,23"/><path class="nsrwapen-3" d="M49.9,182.52H70c.93-9.27-3.44-15.06-9.13-18.47-1.46,8.36-6,13.62-11,18.47m21.69,1.83H43.73c7.94-5,14.23-11.64,15.75-23,8.06,3.45,14,11.13,12.11,23"/><path class="nsrwapen-3" d="M49.9,221.33H70c.93-9.27-3.44-15.06-9.13-18.46-1.46,8.35-6,13.61-11,18.46m21.69,1.83H43.73c7.94-5,14.23-11.64,15.75-23,8.06,3.45,14,11.13,12.11,23"/><path class="nsrwapen-3" d="M217.28,51.77h20.1c.93-9.28-3.44-15.07-9.14-18.47-1.45,8.35-6,13.61-11,18.47M239,53.59H211.11c7.95-5,14.23-11.63,15.76-23,8.06,3.45,14,11.13,12.1,23"/><path class="nsrwapen-3" d="M217.28,90.58h20.1c.93-9.28-3.44-15.07-9.14-18.48-1.45,8.36-6,13.62-11,18.48M239,92.4H211.11c7.95-5,14.23-11.64,15.76-23,8.06,3.46,14,11.14,12.1,23"/><path class="nsrwapen-3" d="M217.28,182.52h20.1c.93-9.27-3.44-15.06-9.14-18.47-1.45,8.36-6,13.62-11,18.47M239,184.35H211.11c7.95-5,14.23-11.64,15.76-23,8.06,3.45,14,11.13,12.1,23"/><path class="nsrwapen-3" d="M217.28,221.33h20.1c.93-9.27-3.44-15.06-9.14-18.46-1.45,8.35-6,13.61-11,18.46M239,223.16H211.11c7.95-5,14.23-11.64,15.76-23,8.06,3.45,14,11.13,12.1,23"/><path class="nsrwapen-3" d="M101.8,37.37a4.78,4.78,0,0,1-1.77.86,3.44,3.44,0,0,1-4.57-2.37,3.6,3.6,0,0,1,2.68-4.73,4.41,4.41,0,0,1,1.84-.22c0,.32,0,.49,0,.8a3.68,3.68,0,0,0-1.55.14,2.7,2.7,0,0,0-2,3.67A2.66,2.66,0,0,0,100,37.43a4.11,4.11,0,0,0,1.42-.73c.15.27.24.41.39.67"/><path class="nsrwapen-3" d="M102.06,30.14c.3,1.15.45,1.73.76,2.88,1.41-.38,2.11-.56,3.52-.9-.29-1.16-.43-1.74-.71-2.9l1-.23c.66,2.78,1,4.17,1.63,7l-.92.21c-.31-1.3-.47-1.95-.79-3.25-1.4.34-2.09.52-3.49.9.35,1.29.51,1.93.86,3.22l-.92.26c-.76-2.76-1.13-4.13-1.89-6.88l1-.26"/><path class="nsrwapen-3" d="M109.94,31.67l1-.2c1-.22,1.55-.88,1.39-1.67s-1-1.16-2-.95a4.2,4.2,0,0,0-.94.28c.22,1,.33,1.52.56,2.54m-1.65-3a10.47,10.47,0,0,1,1.82-.54,3.15,3.15,0,0,1,2.28.13,1.74,1.74,0,0,1,.84,1.22,1.91,1.91,0,0,1-1,2.05s0,0,0,0a1.79,1.79,0,0,1,1.32,1.2,11.62,11.62,0,0,0,.94,1.82l-1,.18a9.33,9.33,0,0,1-.81-1.57c-.4-.92-.88-1.21-1.73-1.06l-.89.19c.27,1.2.4,1.8.66,3l-.92.21c-.61-2.74-.92-4.11-1.53-6.86"/><path class="nsrwapen-3" d="M115.19,27.24c.5,2.82.75,4.18,1.24,7l-.94.17c-.5-2.81-.77-4.2-1.27-7l1-.16"/><path class="nsrwapen-3" d="M117.74,32.89a3.34,3.34,0,0,0,1.73.19c1-.15,1.45-.7,1.34-1.41s-.54-1-1.58-1.2c-1.25-.24-2.12-.71-2.28-1.69s.65-2.07,2.12-2.29a3.65,3.65,0,0,1,1.71.1c-.06.32-.1.47-.17.78a2.93,2.93,0,0,0-1.46-.13c-1,.16-1.32.79-1.24,1.27.11.66.61.9,1.68,1.13,1.32.27,2,.79,2.15,1.82s-.52,2.14-2.21,2.39a3.85,3.85,0,0,1-1.91-.16c.06-.32.07-.48.12-.8"/><path class="nsrwapen-3" d="M123.9,26.76c-.91.1-1.37.16-2.28.28l-.1-.79c2.23-.29,3.36-.41,5.6-.63,0,.31,0,.47.08.78l-2.31.23.7,6.32-.94.09-.75-6.28"/><path class="nsrwapen-3" d="M128.93,25.46c.14,1.69.2,2.53.35,4.22s.91,2.18,1.89,2.12,1.71-.81,1.62-2.37-.15-2.53-.26-4.22l1-.06c.08,1.67.13,2.49.22,4.16.12,2.18-1,3.13-2.57,3.24s-2.66-.62-2.86-2.83c-.15-1.67-.23-2.5-.38-4.18l1-.08"/><path class="nsrwapen-3" d="M141.61,28.92c-.06-1-.12-2.21-.12-3.08h0c-.27.82-.56,1.73-.93,2.71-.51,1.39-.76,2.08-1.25,3.48h-.71c-.5-1.35-.75-2-1.28-3.35-.38-1-.7-1.91-.94-2.75h0c0,.9,0,2.08,0,3.16s0,1.84-.08,3.06l-.9,0c.08-2.86.13-4.27.22-7.12.5,0,.75,0,1.25,0,.56,1.36.84,2,1.38,3.4.33.87.59,1.65.8,2.39h0c.18-.72.44-1.51.76-2.42.51-1.38.76-2.06,1.29-3.44h1.25c.18,2.85.27,4.26.43,7.11h-.93c-.07-1.25-.1-1.87-.17-3.12"/><path class="nsrwapen-3" d="M146.42,32.12c.09-2.85.13-4.26.22-7.11.43,0,.65,0,1.08,0,.91,1.48,1.36,2.22,2.23,3.71a17.88,17.88,0,0,1,1.17,2.38h0c0-.95,0-1.83.07-2.93s.12-1.78.19-3l.92.06c-.2,2.85-.3,4.26-.49,7.11l-.93-.06c-.83-1.5-1.27-2.25-2.14-3.74a23,23,0,0,1-1.29-2.43h0c0,.9,0,1.76,0,2.94s-.07,1.83-.11,3l-.87,0"/><path class="nsrwapen-3" d="M154.32,29.05c-.13,1.53.58,2.95,2.07,3.1s2.46-1.08,2.65-2.68c.17-1.42-.43-3-2-3.16s-2.54,1.19-2.67,2.74m5.74.48c-.3,2.43-2,3.54-3.8,3.35a3.35,3.35,0,0,1-3-3.9,3.42,3.42,0,0,1,3.81-3.41,3.27,3.27,0,0,1,2.95,4"/><path class="nsrwapen-3" d="M160.84,32.18a3.41,3.41,0,0,0,1.59.67c1,.13,1.6-.27,1.71-1s-.24-1.1-1.18-1.6c-1.13-.59-1.81-1.27-1.68-2.26s1.22-1.79,2.69-1.57a3.47,3.47,0,0,1,1.6.59c-.15.28-.22.41-.38.69a2.81,2.81,0,0,0-1.36-.54c-1-.15-1.48.36-1.55.85-.09.66.31,1,1.27,1.56,1.18.65,1.71,1.33,1.55,2.36s-1.13,1.91-2.82,1.67a4,4,0,0,1-1.79-.71l.35-.73"/><path class="nsrwapen-3" d="M171.08,34.79a4.75,4.75,0,0,1-2,0,3.42,3.42,0,0,1-2.93-4.19,3.62,3.62,0,0,1,4.55-3,4.45,4.45,0,0,1,1.71.65l-.41.7a3.43,3.43,0,0,0-1.42-.59,2.69,2.69,0,0,0-3.41,2.37A2.64,2.64,0,0,0,169.48,34a3.84,3.84,0,0,0,1.58,0c0,.31,0,.45,0,.75"/><path class="nsrwapen-3" d="M176.64,32.83c-1.12-.27-1.68-.39-2.81-.64l-.55,2.5c1.24.28,1.85.42,3.09.72-.08.3-.11.44-.19.74-1.59-.38-2.39-.56-4-.91.59-2.78.89-4.16,1.48-7,1.62.34,2.41.5,4,.89-.08.31-.1.46-.17.77-1.22-.29-1.82-.43-3.05-.7-.19.87-.29,1.31-.48,2.19,1.13.25,1.7.38,2.83.65-.08.3-.12.44-.19.74"/><path class="nsrwapen-3" d="M179.23,33l1,.27c1,.26,1.77-.07,2-.86s-.34-1.47-1.35-1.74a4.81,4.81,0,0,0-.94-.19c-.26,1-.4,1.52-.66,2.52m-.15-3.37A11.56,11.56,0,0,1,181,30a3.28,3.28,0,0,1,2,1.15,1.74,1.74,0,0,1,.21,1.46,1.91,1.91,0,0,1-1.84,1.36.06.06,0,0,0,0,0,1.76,1.76,0,0,1,.66,1.67,11.65,11.65,0,0,0,0,2l-.94-.27a8.54,8.54,0,0,1,0-1.75c0-1-.25-1.48-1.09-1.74-.35-.09-.53-.12-.88-.22l-.77,3-.92-.24c.68-2.73,1-4.08,1.72-6.81"/><path class="nsrwapen-3" d="M187.62,35.91c-1.11-.36-1.66-.52-2.77-.86-.3,1-.44,1.47-.74,2.46,1.22.36,1.83.55,3,1-.1.29-.16.43-.25.72-1.57-.51-2.36-.74-3.94-1.21.8-2.73,1.2-4.09,2-6.83,1.6.46,2.39.71,4,1.22-.1.29-.13.45-.23.74-1.19-.39-1.8-.57-3-.93l-.65,2.15c1.12.34,1.68.52,2.79.88-.1.29-.15.42-.24.71"/><path class="nsrwapen-3" d="M103.53,223.16c-1.12-.32-1.67-.51-2.79-.86-.32,1-.48,1.48-.79,2.46,1.27.4,1.91.59,3.18,1-.09.3-.12.43-.21.73-1.67-.48-2.51-.73-4.17-1.27.89-2.71,1.34-4.06,2.22-6.77,1.51.48,2.26.72,3.78,1.17-.09.29-.12.45-.2.75-1.16-.34-1.75-.52-2.9-.88l-.69,2.14c1.11.35,1.66.52,2.78.84-.09.29-.12.44-.21.73"/><path class="nsrwapen-3" d="M107.39,221.12l-2.14-.59c.08-.3.11-.45.19-.75,2.08.6,3.14.86,5.24,1.37-.07.3-.1.45-.18.75l-2.19-.53c-.63,2.45-1,3.68-1.6,6.13l-1-.25,1.65-6.13"/><path class="nsrwapen-3" d="M112.17,228.8l1.52-7,1,.21c.61,1.6.94,2.41,1.6,4a20.48,20.48,0,0,1,.9,2.52s0,0,0,0c.09-.95.2-1.8.4-2.89s.31-1.76.53-2.93l.88.16c-.5,2.8-.74,4.2-1.23,7l-1-.18c-.7-1.6-1-2.4-1.69-4a17.44,17.44,0,0,1-.86-2.59h0c-.13.88-.3,1.72-.54,2.87l-.63,3-.91-.2"/><path class="nsrwapen-3" d="M120.64,226.8c-.23,1.51.41,3,2,3.22s2.59-1,2.79-2.63c.17-1.42-.39-3-2-3.18s-2.55,1-2.8,2.59m5.76.68a3.38,3.38,0,0,1-4,3.27,3.3,3.3,0,0,1-2.81-4.1,3.45,3.45,0,0,1,3.93-3.17,3.33,3.33,0,0,1,2.83,4"/><path class="nsrwapen-3" d="M129,225l-2.21-.24c0-.31,0-.46.09-.77,2.13.24,3.21.33,5.34.49l-.05.77c-.89-.06-1.34-.1-2.23-.18-.22,2.53-.33,3.78-.56,6.31l-1-.09c.25-2.52.36-3.77.61-6.29"/><path class="nsrwapen-3" d="M134,224.63c-.1,1.68-.14,2.53-.24,4.22s.61,2.3,1.63,2.35,1.87-.64,1.92-2.2.08-2.53.13-4.22l1,0c0,1.67-.07,2.48-.11,4.15-.06,2.19-1.31,3.06-3,3s-2.69-1-2.54-3.2c.12-1.67.17-2.51.28-4.18l.94.06"/><path class="nsrwapen-3" d="M146.2,228.77c-.08-1-.18-2.19-.21-3.07h0c-.24.83-.51,1.73-.85,2.73-.5,1.39-.75,2.1-1.27,3.49h-.75c-.5-1.35-.74-2-1.23-3.39a27,27,0,0,1-.85-2.76h0c0,.89-.1,2.07-.17,3.14-.09,1.23-.13,1.82-.23,3.05l-.93,0c.26-2.84.38-4.25.61-7.1h1.19c.5,1.38.75,2.07,1.26,3.44.31.87.56,1.65.77,2.39h0c.19-.72.45-1.5.77-2.41.5-1.39.74-2.08,1.23-3.48l1.19,0c.29,2.85.43,4.26.74,7.1l-1,0-.3-3.12"/><path class="nsrwapen-3" d="M150.86,224.55c1.56-.11,2.33-.18,3.89-.33,0,.3,0,.45.07.76-1.19.12-1.78.17-3,.26.08.95.12,1.41.19,2.36,1.12-.09,1.67-.14,2.78-.25,0,.31,0,.46.07.77l-2.8.24c.1,1.29.15,1.93.24,3.22l-1,.06c-.19-2.85-.29-4.25-.49-7.09"/><path class="nsrwapen-3" d="M159.31,227.88c-.4-.77-.58-1.16-1-1.93-.22-.45-.38-.85-.53-1.25h0a10.48,10.48,0,0,1-.21,1.33c-.18.86-.29,1.28-.49,2.13.9-.1,1.34-.15,2.24-.27m-2.37,1c-.22.93-.32,1.39-.54,2.32-.41,0-.6,0-1,.09.76-2.93,1.12-4.4,1.76-7.35l1.12-.13c1.34,2.7,2,4,3.47,6.7-.41.06-.62.1-1,.15-.45-.84-.67-1.25-1.11-2.1-1.05.15-1.59.21-2.65.32"/><path class="nsrwapen-3" d="M167.91,229.27A5.14,5.14,0,0,1,166,230a3.38,3.38,0,0,1-4.26-3,3.65,3.65,0,0,1,3.19-4.31,4.13,4.13,0,0,1,1.76,0c0,.31,0,.47-.09.79a3.5,3.5,0,0,0-1.5,0,2.71,2.71,0,0,0-2.35,3.37,2.62,2.62,0,0,0,3.31,2.35,3.92,3.92,0,0,0,1.53-.59c.13.28.22.42.35.7"/><path class="nsrwapen-3" d="M172.29,225.16c-1.13.26-1.7.39-2.84.63l.52,2.5c1.3-.27,1.95-.41,3.24-.71.06.3.1.45.17.75-1.69.39-2.53.58-4.22.92-.57-2.8-.86-4.18-1.42-7,1.55-.31,2.32-.48,3.86-.83l.18.75c-1.18.28-1.76.4-2.94.65.18.88.27,1.31.45,2.2l2.82-.62c.06.29.11.44.18.74"/><path class="nsrwapen-3" d="M174.66,224.13l1-.25c1-.26,1.49-.95,1.27-1.74s-1-1.09-2-.84a4.52,4.52,0,0,0-.9.3c.25,1,.37,1.52.63,2.53M173,221.22a10.7,10.7,0,0,1,1.72-.6,3.08,3.08,0,0,1,2.19,0,1.81,1.81,0,0,1,.92,1.15,1.86,1.86,0,0,1-.87,2.11v0a1.8,1.8,0,0,1,1.43,1.09,9.61,9.61,0,0,0,1.12,1.72l-1,.28a7.52,7.52,0,0,1-.94-1.5c-.48-.88-1-1.14-1.83-.95l-.88.23c.29,1.19.45,1.78.76,3l-1,.24c-.66-2.73-1-4.09-1.66-6.81"/><path class="nsrwapen-3" d="M183.34,222.1c-1.11.36-1.68.54-2.79.87.29,1,.45,1.47.74,2.46,1.27-.38,1.91-.58,3.17-1,.1.3.16.45.25.74-1.66.54-2.5.79-4.17,1.27-.79-2.73-1.2-4.09-2-6.82,1.52-.45,2.29-.69,3.8-1.18.09.3.14.45.24.75-1.16.37-1.74.56-2.91.9l.65,2.15c1.11-.33,1.67-.51,2.77-.87.1.3.15.43.24.72"/><path class="nsrwapen-3" d="M146.93,144.15H136.54s-.33,0-.3-.25.35-.21.35-.21H146.9s.33,0,.35.21-.32.25-.32.25m-38.81-46c7.72.24,15.32-1.36,22.66-2.91l2.29-.49c4.5-.93,6.54-.4,7.46.22a1.56,1.56,0,0,1,.69.84l-.06,40.88c0-.36-.69-3.25-13.41-.91-13.51,2.48-20.32,3.69-30.14,3.53.63-2.48,9-35,10.51-41.16M143,94.94c.91-.62,2.95-1.15,7.45-.22l2.29.49c7.34,1.55,14.94,3.15,22.67,2.91,1.55,6.11,9.87,38.68,10.51,41.16-9.83.16-16.64-1.05-30.15-3.53-12.71-2.34-13.38.55-13.41.91l-.06-40.88a1.61,1.61,0,0,1,.7-.84m4.89,47.55v-.76h42.59l-6-21.84,7.12,22.6Zm-12.21,0H91.88L99,119.9l-6,21.83h42.6Zm5.69-5.8h0Zm1,0h0Zm51,6.32L179.84,100.2l-.75-.09L179,100l-.18-.33-.6-.05-.36-.49-.76-.16-.4-.72-.64-.3-.39-.8-.44,0c-7.58.22-14.76-1.29-22.36-2.89l-2.29-.49c-4-.82-6.75-.68-8.3.42a3.08,3.08,0,0,0-.58.55,2.64,2.64,0,0,0-.59-.55c-1.54-1.1-4.34-1.24-8.28-.42l-2.3.49c-7.6,1.6-14.78,3.11-22.36,2.89l-.44,0-.39.8-.64.3-.4.72-.76.16-.35.49-.6.05-.19.33,0,.16-.76.09L90.15,143c-.11.37-.11,1,.5,1h44c0,1,.54,1.09.54,1.09h13s.56-.11.55-1.09h44c.61,0,.61-.61.5-1"/><path class="nsrwapen-3" d="M229.58,126.92H214.1L142.28,55.21V39.76ZM141.79,198.7,70.38,127.41l71.41-71.29,71.39,71.29ZM206,232.76l-29.69-50.25L206,152.88Zm-2.64,9.37c-3.09.65-12,2.41-31.6,5.57-20.42,3.31-27.76,7.61-30.1,9.47-2.33-1.86-9.67-6.16-30.09-9.47C92,244.54,83,242.77,80,242.13l32.18-54.77L141.79,217l29.48-29.44ZM53.94,127.9H69.51l71.78,71.65v15.57ZM77.31,232.76V152.6l29.79,29.74Zm0-203.1,28.78,43.83L77.31,102.22Zm4.51-6.52c4.51-.56,18-2.14,29.79-2.73,14-.7,28.36-.74,30-.75s16.1.05,30,.75c11.83.59,25.28,2.17,29.79,2.73l-29.15,45.2L141.79,37.85,111.09,68.5ZM206,29.66V102L177.32,73.33ZM208,23,175.87,71.9l-2.12-2.13,31.09-48.19-1.55-.21c-.17,0-17-2.23-31.5-2.94-13.62-.68-27.67-.74-30-.75h-.34c-2.3,0-16.35.07-30,.75-14.46.71-31.34,2.92-31.5,2.94l-1.56.21,31.2,48.36-2.13,2.12L75.32,23v81.2l-23.23,23.2,23.23,23.21V240l33.23-56.25,2.12,2.11L76.85,243.47l1.31.31c.08,0,7.68,1.78,33.06,5.88,25.09,4.07,29.77,9.57,29.79,9.62a.93.93,0,0,0,1.25,0c.05-.06,4.72-5.56,29.8-9.63,25.39-4.1,33-5.86,33.07-5.88l1.31-.31-33.72-57.39,2.12-2.12L208,240V150.89l23.52-23.48L208,103.94Z"/></g></svg>