<svg class="socwapen" id="Socwapen" data-name="Layer 1" xmlns="http://www.w3.org/2000/svg" viewBox="0 0 283.46 283.46"><defs></defs><title>Socwapen</title><path class="socwapenPath" d="M141.73,7.08H10s18.62.67,18.62,24.5,0,205.05,0,205.05-1.24,10,31.66,17.28,80.83,11.17,81.45,22.47c.62-11.3,48.54-15.15,81.44-22.47s31.66-17.28,31.66-17.28,0-181.21,0-205S273.5,7.08,273.5,7.08ZM242.48,31.29s-.06,185.12-.06,197.29c-.75,12.16-38.54,18.91-67.54,23.59-31.54,5.09-33.15,12.43-33.15,12.43s-1.62-7.34-33.15-12.43c-29-4.68-66.8-11.43-67.54-23.59C41,216.41,41,31.29,41,31.29S39.75,23.39,72.53,19c30-4,69.2-4.09,69.2-4.09S181,15,210.92,19c32.78,4.39,31.56,12.29,31.56,12.29M85.91,132.62H73.66l-2.15,5a7.87,7.87,0,0,0-.79,2.76,1.6,1.6,0,0,0,.69,1.27,6,6,0,0,0,3,.71v.87h-10v-.87a5.35,5.35,0,0,0,2.56-.91,14,14,0,0,0,2.64-4.55l11.13-26h.82l11,26.33A12.08,12.08,0,0,0,95,141.29a5,5,0,0,0,3,1.06v.87H85.54v-.87a4.61,4.61,0,0,0,2.55-.63,1.59,1.59,0,0,0,.67-1.3,9.71,9.71,0,0,0-.93-3.25Zm-.65-1.73L79.89,118.1l-5.51,12.79Zm63.51-76,11.33,13.9L146.61,57.24l-4.88,31.37-4.88-31.37L123.36,68.83l11.33-13.9-19.28-4.56,19.28-4.63-11.5-13.82,14,11.5,4.55-19.2,4.55,19.2,14-11.5-11.5,13.82,19.28,4.63Zm36.73,81h.87a2.9,2.9,0,0,0,1,2.31,4.77,4.77,0,0,0,2.82.65h6.37l0-1.56a12.41,12.41,0,0,1-6.76-4.13,12.25,12.25,0,0,1-3.06-8.54,13,13,0,0,1,4.26-9.76,17.36,17.36,0,0,1,22-.22,12.59,12.59,0,0,1,4.22,9.77,12.94,12.94,0,0,1-2.62,8.2,13.5,13.5,0,0,1-7.11,4.68l-.24,1.56h6.49c1.48,0,2.46-.28,2.93-.84a3.29,3.29,0,0,0,.76-2.12h.86v7.3H205.15l.61-7q6-1.89,6-11.14,0-6-2.95-9.26a9.1,9.1,0,0,0-6.92-3.22,8.61,8.61,0,0,0-7,3.42,13.47,13.47,0,0,0-2.77,8.74,19.22,19.22,0,0,0,1.24,7,7.63,7.63,0,0,0,4.74,4.45l.44,7H185.5Zm-14.69,93.38a6.36,6.36,0,0,1-6.2,6.36H118.85a6.36,6.36,0,0,1,0-12.71h45.76a6.35,6.35,0,0,1,6.2,6.35m-46.4-19.5a4.82,4.82,0,0,1,0-9.63h34.64a4.82,4.82,0,0,1,0,9.63H124.41m2.11-10.63a4.23,4.23,0,0,1,0-8.45h30.42a4.23,4.23,0,0,1,0,8.45H126.52m4.19-9.44a3.07,3.07,0,0,1,0-6.13h22a3.07,3.07,0,0,1,0,6.13h-22m5.23-7.13a1.61,1.61,0,0,1,0-3.21h11.58a1.61,1.61,0,0,1,0,3.21H135.94m-14.25,39.34a5.57,5.57,0,0,1,0-11.14h40.07a5.57,5.57,0,0,1,0,11.14H148.09V219.4h0a6.36,6.36,0,0,0-12.71,0h0v2.54H121.69M224.82,39.87c-2.7-8.18-13.22-9.3-20.61-5-8.25,4.75-12,13.61-13.41,18.43s-2.33,7.81-3.6,9.34-2.5,2.93-1.71,3.5c.56.39.46.45,1.44-.35,2.5-2,2.63,1,5.74-7.31A41.68,41.68,0,0,1,206.8,40c5-3.62,13.59-3.68,12.72,2.07-1,6.68-10.5,12.88-21.64,19.2s-27.11,26.19-29.69,29.24c-2,2.35-16.12,20-28.24,36.29L90.3,64.64l.85-.69-1.47-1.82a152.93,152.93,0,0,0,11.63-10.25,2.55,2.55,0,1,0-1.66-2.1A147.49,147.49,0,0,0,87.17,59l-3.12-3.86-.83.67c-1.87-2.7-13.11-18.82-16.45-22-2.15-1.44-5.26.44-6,1h0c-.75.61-3.23,3.26-2.27,5.67,2.43,3.93,15.85,18.28,18.1,20.67l-.83.67,3.13,3.86A151.38,151.38,0,0,0,67.23,76,2.54,2.54,0,1,0,68,80.4a2.52,2.52,0,0,0,.91-2.32,152.61,152.61,0,0,0,12.46-9.24l1.47,1.82.86-.69,51.68,63c-1.89,2.59-3.67,5.09-5.28,7.41C117.56,158.49,80,214.15,71.66,229.07c-.19.44.38,1.06.88,1.51s1.32,1.06,1.64.52c3.88-6.63,38.91-59.23,58.6-86.52,1.84-2.55,3.74-5.18,5.69-7.86L172,177.57s29.78,34.54,43.47,48.44l.06.07,0,0,0,0-.06-.08c-10.74-16.29-38.31-52.61-38.31-52.61L143,130.58c18.06-24.62,39.16-52,53.19-62.89C202.11,63,208,62.17,216,55.6,223,49.89,226.22,44.11,224.82,39.87ZM87.91,69a.37.37,0,0,1,.57-.47c2.62,3.22,27.82,34.13,49.5,60.93l-.63.86C115.62,103.48,90.51,72.25,87.91,69Zm76.17,93c2.46,3.11,9.36,12.08,10.35,13.37-1.05-1.24-8.39-9.86-10.92-12.91-5.43-6.56-13.84-16.89-23.12-28.34l.63-.85C150.35,144.77,158.77,155.24,164.08,162Z"/></svg>